<svg width="11" height="14" viewBox="0 0 11 14" fill="none" xmlns="http://www.w3.org/2000/svg">
<path fill-rule="evenodd" clip-rule="evenodd" d="M5.43369 0.2948C6.65893 0.2948 7.84854 0.708526 8.78649 1.45986V1.45983C10.0117 2.44068 10.7324 3.83532 10.8195 5.38588C10.903 6.91674 10.3309 8.4145 9.25057 9.49486L5.66928 13.0293C5.53055 13.1668 5.28994 13.1656 5.15121 13.0281L1.62053 9.4974C0.537717 8.41459 -0.0356126 6.91561 0.0490968 5.38591C0.135023 3.83542 0.856905 2.44077 2.08089 1.45986C3.01762 0.708526 4.20848 0.2948 5.43369 0.2948ZM3.02746 5.68442C3.02746 7.01153 4.10656 8.09066 5.43369 8.09066C6.76079 8.09066 7.84115 7.01156 7.83993 5.68442C7.83993 4.35732 6.76083 3.27819 5.43369 3.27819C4.10659 3.27819 3.02746 4.35729 3.02746 5.68442Z" fill="white"/>
<path d="M5.43369 4.5116C4.7867 4.5116 4.26125 5.03705 4.26125 5.68404C4.26125 6.33103 4.7867 6.85648 5.43369 6.85648C6.08068 6.85648 6.60613 6.33103 6.60613 5.68404C6.60613 5.03705 6.08068 4.5116 5.43369 4.5116Z" fill="white"/>
</svg>
