<?xml version="1.0"?>
<svg xmlns="http://www.w3.org/2000/svg" height="512px" viewBox="0 -85 512 512" width="512px" class="hovered-paths"><g><path d="m127.554688 144.453125h-.023438c-5.523438 0-9.988281 4.476563-9.988281 10s4.488281 10 10.011719 10c5.523437 0 10-4.476563 10-10s-4.476563-10-10-10zm0 0" data-original="#000000" class="hovered-path active-path" data-old_color="#000000" fill="#FFFFFF"/><path d="m480.796875 17.636719-12.042969 1.105469c-4.28125-10.957032-14.945312-18.742188-27.398437-18.742188h-272.609375c-16.214844 0-29.40625 13.191406-29.40625 29.40625v19.613281l-110.914063 10.195313c-16.207031 1.488281-28.425781 14.882812-28.425781 31.15625v49.5c0 13.554687 11.027344 24.582031 24.582031 24.582031h16.65625v157.15625h-19.042969c-5.523437 0-10 4.476563-10 10s4.476563 10 10 10h469.011719c5.519531 0 10-4.476563 10-10s-4.480469-10-10-10h-20.445312c0-30.210937 0-119.945313 0-157.15625h12.648437c15.765625 0 28.589844-12.824219 28.589844-28.585937v-89.761719c0-16.785157-14.441406-30.007813-31.203125-28.46875zm-321.457031 11.769531c0-5.1875 4.21875-9.40625 9.40625-9.40625h272.609375c5.1875 0 9.40625 4.21875 9.40625 9.40625v51.082031h-291.421875zm.207031 292.203125h-52.800781v-87.855469c0-1.417968 1.152344-2.570312 2.570312-2.570312h47.660156c1.417969 0 2.574219 1.152344 2.574219 2.570312v87.855469zm291.214844-47.300781h-64.761719v-68.902344h64.761719zm41.238281-138.441406c0 4.734374-3.851562 8.585937-8.589844 8.585937-16.652344 0-290.691406 0-315.882812 0-5.519532 0-10 4.476563-10 10s4.480468 10 10 10h283.234375v20.953125h-224.859375c-16.515625 0-29.953125 13.4375-29.953125 29.953125v48.992187c0 16.519532 13.4375 29.957032 29.953125 29.957032h224.859375v27.300781h-271.214844v-87.851563c0-12.449218-10.125-22.574218-22.570313-22.574218h-47.660156c-12.445312 0-22.570312 10.125-22.570312 22.574218v87.851563h-25.507813v-157.15625h26.289063c5.523437 0 10-4.476563 10-10s-4.476563-10-10-10c-10.449219 0-53.109375 0-62.945313 0-2.527343 0-4.582031-2.054687-4.582031-4.582031v-49.5c0-5.871094 4.40625-10.703125 10.253906-11.242188l109.085938-10.023437v11.875c0 10.757812 8.75 19.507812 19.503906 19.507812h292.410156c10.753906 0 19.507813-8.75 19.507813-19.507812v-42.339844c9.472656-.300781 14.050781-2.882813 18.4375 1.117187 1.804687 1.648438 2.796875 3.902344 2.796875 6.347657v89.761719zm-126 69.539062v68.902344h-73.882812v-68.902344zm-93.882812 0v68.902344h-46.214844c-5.488282 0-9.953125-4.46875-9.953125-9.957032v-48.992187c0-5.488281 4.464843-9.957031 9.953125-9.957031h46.214844zm0 0" data-original="#000000" class="hovered-path active-path" data-old_color="#000000" fill="#FFFFFF"/></g> </svg>
