<?xml version="1.0"?>
<svg xmlns="http://www.w3.org/2000/svg" id="Layer_3" data-name="Layer 3" viewBox="0 0 64 64" width="512px" height="512px" class=""><g><path d="M1,62.88,63,63h0a1,1,0,0,0,0-2L1,60.88H1a1,1,0,0,0,0,2Z" data-original="#000000" class="active-path" data-old_color="#000000" fill="#FFFFFF"/><path d="M5.5,36.9V54a1,1,0,0,0,1,1,1,1,0,0,0,.75-.35A1,1,0,0,0,8,55H56a1,1,0,0,0,.87-1.5l-3.74-6.56V20.69a8.88,8.88,0,1,0-2,0V43.44L33.35,12.3,39.61,1.5a1,1,0,1,0-1.73-1L32.2,10.29,26.62.5a1,1,0,1,0-1.74,1L31,12.29,22.14,27.64a1,1,0,1,0,1.73,1L32.19,14.3,54.28,53H33V25.75a1,1,0,0,0-2,0V53H9.74L21.61,32.53a1,1,0,1,0-1.73-1l-4.76,8.2v-13a8.88,8.88,0,1,0-2,0V42.75a1,1,0,0,0,.06.31L7.5,52.87v-16a5.5,5.5,0,1,0-2,0Zm39.75-25a6.88,6.88,0,1,1,7.88,6.79V12.25a1,1,0,0,0-2,0v6.42A6.88,6.88,0,0,1,45.25,11.88Zm-38,6a6.88,6.88,0,1,1,7.88,6.79V18.25a1,1,0,0,0-2,0v6.42A6.88,6.88,0,0,1,7.25,17.88ZM6.5,28a3.49,3.49,0,0,1,1,6.84V31.75a1,1,0,0,0-2,0v3.09A3.49,3.49,0,0,1,6.5,28Z" data-original="#000000" class="active-path" data-old_color="#000000" fill="#FFFFFF"/><path d="M5.75,57a1,1,0,0,0,0,2H16a1,1,0,0,0,0-2Z" data-original="#000000" class="active-path" data-old_color="#000000" fill="#FFFFFF"/><path d="M49.75,57a1,1,0,0,0,0,2H60a1,1,0,0,0,0-2Z" data-original="#000000" class="active-path" data-old_color="#000000" fill="#FFFFFF"/><path d="M27.75,57a1,1,0,0,0,0,2H44a1,1,0,0,0,0-2Z" data-original="#000000" class="active-path" data-old_color="#000000" fill="#FFFFFF"/></g> </svg>
