<svg width="61" height="48" viewBox="0 0 61 48" fill="none" xmlns="http://www.w3.org/2000/svg">
<path fill-rule="evenodd" clip-rule="evenodd" d="M59.5976 43.8611C59.5882 43.8896 59.5764 43.9181 59.5623 43.9442L59.5628 43.9438C59.5487 43.9723 59.5345 43.9984 59.5063 44.0174C59.4953 44.0348 59.4844 44.05 59.4734 44.0653C59.4679 44.073 59.4624 44.0806 59.4569 44.0886C59.4381 44.1123 59.417 44.1384 59.3958 44.1621C59.377 44.1811 59.3582 44.2001 59.337 44.2191C59.3135 44.2428 59.2876 44.2642 59.2617 44.2832C59.2509 44.2904 59.2389 44.2983 59.2266 44.3062C59.2148 44.3137 59.2027 44.3213 59.1912 44.3282C59.1841 44.3318 59.1772 44.3355 59.1704 44.3393C59.1656 44.3419 59.1608 44.3446 59.156 44.3473C59.1402 44.3562 59.1241 44.3651 59.1065 44.3733C59.097 44.3781 59.0873 44.3824 59.0773 44.3864C59.0665 44.3907 59.0555 44.3947 59.0444 44.3988C59.0354 44.4021 59.0263 44.4054 59.0172 44.4089C59.0109 44.4113 59.0049 44.414 58.9989 44.4166C58.9932 44.4191 58.9874 44.4216 58.9815 44.4239C58.975 44.4264 58.9681 44.4286 58.9607 44.4303C58.956 44.4315 58.9519 44.4315 58.9478 44.4315H58.9465C58.9428 44.4315 58.9391 44.4316 58.9349 44.4327C58.862 44.4517 58.7867 44.4635 58.7091 44.4635C58.6033 44.4635 58.5656 44.4801 58.5656 44.4801C58.5224 44.5307 58.4438 44.7838 58.394 44.9441L58.3893 44.9595C58.2058 45.5529 57.8225 46.7869 56.2727 46.7869C54.9471 46.7869 54.2886 45.8987 53.8068 45.2489L53.8034 45.2443C53.3518 44.6296 53.1802 44.4635 52.8415 44.4635C52.5029 44.4635 52.3335 44.6296 51.8796 45.2419L51.8763 45.2464C51.3945 45.8963 50.7359 46.7845 49.408 46.7845C48.0823 46.7845 47.4238 45.8963 46.942 45.2464L46.9386 45.2419C46.4871 44.6296 46.3154 44.4635 45.9767 44.4635C45.6404 44.4635 45.4687 44.6296 45.0149 45.2443C44.5351 45.8946 43.8742 46.7869 42.5455 46.7869C41.2175 46.7869 40.559 45.8987 40.0772 45.2489L40.0738 45.2443C39.6223 44.632 39.4506 44.4659 39.112 44.4659C38.7733 44.4659 38.604 44.632 38.1501 45.2443C37.6703 45.8946 37.0118 46.7869 35.6808 46.7869C34.3551 46.7869 33.6966 45.8987 33.2148 45.2489L33.2114 45.2443C32.7599 44.632 32.5882 44.4659 32.2495 44.4659C31.9132 44.4659 31.7416 44.6321 31.2877 45.2467C30.8079 45.897 30.1471 46.7894 28.8183 46.7894C27.4927 46.7894 26.8342 45.9012 26.3524 45.2513L26.349 45.2467C25.8974 44.6345 25.7258 44.4683 25.3871 44.4683C25.0508 44.4683 24.8791 44.6345 24.4252 45.2491C23.9455 45.8994 23.2846 46.7918 21.9559 46.7918C21.5349 46.7918 21.1516 46.6185 20.8811 46.3053C20.225 45.5506 20.3567 44.2643 20.6272 42.2281L20.6318 42.1928C20.7284 41.4561 20.8757 40.3325 20.8271 39.786C19.0704 40.1323 16.5775 43.6853 15.2841 46.2698C15.1242 46.5926 14.7973 46.7919 14.4445 46.7919C14.4257 46.7919 14.4069 46.7919 14.3881 46.7895C14.0142 46.7682 13.6873 46.5238 13.5603 46.1678C13.3439 45.5645 11.4955 40.1941 13.4168 37.2228C14.1364 36.1121 15.3029 35.4737 16.7939 35.3764C18.0897 35.291 18.6823 34.9397 18.7952 34.662C18.8705 34.4769 18.7505 34.1613 18.4871 33.8599C17.7863 33.0553 16.22 32.4098 14.4374 32.8987C11.9656 33.5731 9.19536 36.9169 8.26171 40.3534C7.9348 41.5614 7.58201 43.797 8.91782 45.1806C9.27998 45.5579 9.27058 46.1583 8.899 46.5238C8.52507 46.8893 7.93247 46.8821 7.56795 46.5048C6.09341 44.9789 5.69596 42.6152 6.44617 39.8527C7.41726 36.2738 10.4888 32.0091 13.9458 31.0669C16.5209 30.3645 18.7903 31.3327 19.9003 32.6072C20.6694 33.4876 20.8998 34.501 20.5353 35.3886C20.2179 36.16 19.3336 37.114 16.916 37.273C16.0153 37.3324 15.3874 37.6575 14.9947 38.2626C14.2021 39.4872 14.3856 41.6587 14.7454 43.3912C16.1565 41.1057 18.6329 37.7856 21.1963 37.8663C21.6102 37.8805 21.9841 38.0609 22.2475 38.3765C22.5109 38.6898 22.6402 39.0956 22.6872 39.5987C24.4181 38.443 26.9442 37.299 31.9298 36.7912C26.5253 14.6963 36.685 2.25815 37.1459 1.70994C37.1498 1.70597 37.1538 1.70284 37.1575 1.69984C37.1628 1.69565 37.1677 1.69173 37.1718 1.6862C37.2 1.65535 37.2282 1.62924 37.2588 1.60314C37.2776 1.58415 37.2964 1.56754 37.3176 1.5533C37.3465 1.53386 37.3754 1.5176 37.4056 1.50062L37.4258 1.48922C37.4446 1.47735 37.4634 1.46549 37.4846 1.456C37.5293 1.43701 37.5739 1.42277 37.621 1.4109C37.6319 1.40932 37.6429 1.40563 37.6539 1.40194L37.6539 1.40193C37.6594 1.40008 37.6649 1.39824 37.6704 1.39666C37.7338 1.38242 37.7997 1.37531 37.8679 1.37531L38.0066 1.38005C38.2841 1.38005 38.5452 1.50109 38.7239 1.71468C39.1848 2.26026 49.2949 14.6349 43.9871 36.6228C57.8667 37.4438 59.5647 43.0328 59.6305 43.2773C59.6329 43.2868 59.6329 43.2986 59.6352 43.3081L59.6493 43.4007C59.654 43.4339 59.6587 43.4671 59.6587 43.5004C59.6587 43.5027 59.6589 43.505 59.6591 43.5073L59.6599 43.5146C59.6602 43.5172 59.6605 43.5197 59.6608 43.5223C59.661 43.5245 59.6611 43.5266 59.6611 43.5288C59.6611 43.5352 59.6608 43.5412 59.6604 43.5472C59.6596 43.5574 59.6584 43.5672 59.6571 43.5777L59.6564 43.5834L59.6561 43.5868C59.6539 43.6191 59.6514 43.6534 59.6446 43.6855C59.6434 43.6927 59.6421 43.6999 59.6406 43.7071C59.6394 43.7131 59.6381 43.7192 59.6368 43.7253C59.6333 43.7405 59.6296 43.7557 59.6258 43.7709L59.621 43.7874L59.6177 43.799C59.6117 43.8203 59.6058 43.8413 59.5976 43.8611ZM38.8081 39.5465H41.2398C46.5949 21.8735 41.5573 9.95949 38.8081 5.22958V39.5465ZM36.9267 5.47868V39.5465H34.6338C29.3824 22.2173 34.1564 10.3792 36.9267 5.47868ZM56.599 44.42L56.6038 44.4045L56.6031 44.4046C56.7136 44.0486 56.9017 43.4648 57.365 43.0542C56.3235 41.7252 53.0381 38.9959 43.5018 38.4999C43.2949 39.2523 43.0714 40.0141 42.8269 40.7877C42.7022 41.1817 42.34 41.4498 41.9308 41.4498H33.94C33.5307 41.4498 33.1686 41.1817 33.0439 40.7877C32.8182 40.0663 32.6112 39.3566 32.416 38.6566C26.3696 39.2309 24.206 40.7616 22.5528 42.0527C22.5454 42.1082 22.5385 42.1634 22.5314 42.2191C22.5204 42.3061 22.5092 42.3943 22.4963 42.4869C22.4046 43.1799 22.2635 44.2479 22.2917 44.8175C22.4634 44.7154 22.6375 44.5066 22.9197 44.1221L22.923 44.1176C23.4048 43.4677 24.0634 42.5795 25.3913 42.5795C26.717 42.5795 27.3755 43.4677 27.8573 44.1175L27.8607 44.1221C28.3122 44.7344 28.4839 44.9005 28.8226 44.9005C29.1612 44.9005 29.3306 44.7344 29.7844 44.1221L29.7878 44.1176C30.2696 43.4677 30.9282 42.5795 32.2561 42.5795C33.5818 42.5795 34.2402 43.4677 34.722 44.1175L34.7254 44.1221C35.1794 44.7344 35.351 44.9005 35.6873 44.9005C36.026 44.9005 36.1953 44.7344 36.6492 44.1221C37.129 43.4719 37.7875 42.5795 39.1185 42.5795C40.4442 42.5795 41.1027 43.4677 41.5845 44.1175L41.5879 44.1221C42.0418 44.7368 42.2134 44.9029 42.5521 44.9029C42.8907 44.9029 43.0601 44.7368 43.514 44.1245L43.5173 44.12C43.9991 43.4701 44.6577 42.5819 45.9857 42.5819C47.3113 42.5819 47.9698 43.4701 48.4516 44.12L48.455 44.1245C48.9065 44.7368 49.0782 44.9029 49.4169 44.9029C49.7555 44.9029 49.9272 44.7368 50.3811 44.1221C50.8609 43.4719 51.5217 42.5795 52.8504 42.5795C54.1784 42.5795 54.8369 43.4677 55.3187 44.1175L55.3221 44.1221C55.776 44.7344 55.9477 44.9005 56.284 44.9005C56.3898 44.9005 56.4274 44.8839 56.4274 44.8839C56.4707 44.8333 56.5492 44.5803 56.599 44.42Z" fill="white"/>
<path d="M59.5623 43.9442L59.1224 43.7064L59.8802 44.3301L59.5623 43.9442ZM59.5976 43.8611L59.1354 43.6703L59.1285 43.6871L59.1228 43.7043L59.5976 43.8611ZM59.5628 43.9438L60.0108 44.1658L59.2449 43.5578L59.5628 43.9438ZM59.5063 44.0174L59.2272 43.6025L59.1396 43.6614L59.0834 43.7507L59.5063 44.0174ZM59.4734 44.0653L59.8796 44.3569L59.8797 44.3568L59.4734 44.0653ZM59.4569 44.0886L59.8487 44.3992L59.8587 44.3867L59.8677 44.3736L59.4569 44.0886ZM59.3958 44.1621L59.7509 44.5141L59.7602 44.5047L59.769 44.4949L59.3958 44.1621ZM59.337 44.2191L59.0031 43.8469L58.9922 43.8567L58.9818 43.8671L59.337 44.2191ZM59.2617 44.2832L59.5408 44.698L59.5493 44.6923L59.5576 44.6862L59.2617 44.2832ZM59.2266 44.3062L58.9573 43.8849L58.9572 43.8849L59.2266 44.3062ZM59.1912 44.3282L59.4164 44.7746L59.4337 44.7659L59.4501 44.756L59.1912 44.3282ZM59.1704 44.3393L58.9294 43.9012L58.9292 43.9013L59.1704 44.3393ZM59.156 44.3473L58.9117 43.911L58.9116 43.9111L59.156 44.3473ZM59.1065 44.3733L58.8954 43.9201L58.8883 43.9234L58.8813 43.927L59.1065 44.3733ZM59.0773 44.3864L58.8912 43.9223L58.8911 43.9224L59.0773 44.3864ZM59.0444 44.3988L58.873 43.9291L58.873 43.9291L59.0444 44.3988ZM59.0172 44.4089L59.194 44.8766L59.1981 44.8751L59.0172 44.4089ZM58.9989 44.4166L59.1997 44.8745L59.1999 44.8744L58.9989 44.4166ZM58.9815 44.4239L59.1607 44.8907L59.161 44.8906L58.9815 44.4239ZM58.9607 44.4303L58.8513 43.9422L58.8383 43.9455L58.9607 44.4303ZM58.9465 44.4315V43.9315L58.9449 43.9315L58.9465 44.4315ZM58.9349 44.4327L58.8128 43.9478L58.8088 43.9488L58.9349 44.4327ZM58.5656 44.4801L58.3637 44.0227L58.2597 44.0687L58.1858 44.155L58.5656 44.4801ZM58.394 44.9441L58.8715 45.0925L58.8716 45.0924L58.394 44.9441ZM58.3893 44.9595L57.9118 44.8112L57.9116 44.8118L58.3893 44.9595ZM53.8068 45.2489L53.405 45.5465L53.4051 45.5467L53.8068 45.2489ZM53.8034 45.2443L53.4004 45.5403L53.4016 45.5419L53.8034 45.2443ZM51.8796 45.2419L52.2812 45.5397L52.2813 45.5396L51.8796 45.2419ZM51.8763 45.2464L51.4747 44.9486L51.4746 44.9486L51.8763 45.2464ZM46.942 45.2464L47.3437 44.9487L47.3436 44.9485L46.942 45.2464ZM46.9386 45.2419L46.5362 45.5386L46.5371 45.5398L46.9386 45.2419ZM45.0149 45.2443L44.6126 44.9473L44.6125 44.9474L45.0149 45.2443ZM40.0772 45.2489L40.4789 44.9511L40.4789 44.9511L40.0772 45.2489ZM40.0738 45.2443L39.6714 45.5411L39.6722 45.5421L40.0738 45.2443ZM38.1501 45.2443L37.7484 44.9465L37.7477 44.9474L38.1501 45.2443ZM33.2148 45.2489L33.6165 44.9511L33.6164 44.951L33.2148 45.2489ZM33.2114 45.2443L32.809 45.5411L32.8098 45.5421L33.2114 45.2443ZM31.2877 45.2467L30.8854 44.9497L30.8853 44.9499L31.2877 45.2467ZM26.3524 45.2513L26.7541 44.9535L26.754 44.9534L26.3524 45.2513ZM26.349 45.2467L25.9466 45.5435L25.9474 45.5446L26.349 45.2467ZM24.4252 45.2491L24.023 44.9521L24.0229 44.9523L24.4252 45.2491ZM20.8811 46.3053L21.2596 45.9785L21.2585 45.9772L20.8811 46.3053ZM20.6272 42.2281L21.1228 42.2939L21.1229 42.293L20.6272 42.2281ZM20.6318 42.1928L20.136 42.1278L20.136 42.1278L20.6318 42.1928ZM20.8271 39.786L21.3251 39.7417L21.2758 39.1879L20.7303 39.2954L20.8271 39.786ZM15.2841 46.2698L14.8369 46.046L14.836 46.0478L15.2841 46.2698ZM14.3881 46.7895L14.4506 46.2935L14.4337 46.2913L14.4166 46.2903L14.3881 46.7895ZM13.5603 46.1678L14.0312 45.9998L14.0309 45.999L13.5603 46.1678ZM13.4168 37.2228L12.9972 36.9509L12.997 36.9513L13.4168 37.2228ZM16.7939 35.3764L16.8265 35.8753L16.8268 35.8753L16.7939 35.3764ZM18.7952 34.662L19.2584 34.8503L19.2584 34.8503L18.7952 34.662ZM18.4871 33.8599L18.1101 34.1883L18.1106 34.1889L18.4871 33.8599ZM14.4374 32.8987L14.5691 33.3811L14.5697 33.3809L14.4374 32.8987ZM8.26171 40.3534L7.7792 40.2223L7.77907 40.2228L8.26171 40.3534ZM8.91782 45.1806L9.27855 44.8343L9.27752 44.8333L8.91782 45.1806ZM8.899 46.5238L9.24849 46.8814L9.24962 46.8803L8.899 46.5238ZM7.56795 46.5048L7.92756 46.1574L7.9275 46.1573L7.56795 46.5048ZM6.44617 39.8527L6.92869 39.9838L6.92872 39.9837L6.44617 39.8527ZM13.9458 31.0669L14.0773 31.5493L14.0774 31.5493L13.9458 31.0669ZM19.9003 32.6072L19.5233 32.9356L19.5238 32.9361L19.9003 32.6072ZM20.5353 35.3886L20.9977 35.5789L20.9978 35.5786L20.5353 35.3886ZM16.916 37.273L16.8832 36.7741L16.8831 36.7741L16.916 37.273ZM14.9947 38.2626L14.5752 37.9904L14.5749 37.991L14.9947 38.2626ZM14.7454 43.3912L14.2558 43.4929L14.5112 44.7223L15.1708 43.6539L14.7454 43.3912ZM21.1963 37.8663L21.2134 37.3666L21.212 37.3665L21.1963 37.8663ZM22.2475 38.3765L21.8636 38.6969L21.8648 38.6983L22.2475 38.3765ZM22.6872 39.5987L22.1894 39.6453L22.2675 40.4802L22.9649 40.0145L22.6872 39.5987ZM31.9298 36.7912L31.9805 37.2886L32.552 37.2304L32.4155 36.6724L31.9298 36.7912ZM37.1459 1.70994L36.7908 1.35797L36.7764 1.3725L36.7632 1.38816L37.1459 1.70994ZM37.1575 1.69984L37.4695 2.09055L37.4695 2.09055L37.1575 1.69984ZM37.1718 1.6862L36.8028 1.34875L36.7857 1.36753L36.7705 1.38795L37.1718 1.6862ZM37.2588 1.60314L37.5835 1.98338L37.5993 1.96986L37.614 1.95508L37.2588 1.60314ZM37.3176 1.5533L37.0385 1.13844L37.0385 1.13845L37.3176 1.5533ZM37.4056 1.50062L37.6507 1.93639L37.6513 1.93607L37.4056 1.50062ZM37.4258 1.48922L37.6715 1.92467L37.6822 1.91866L37.6925 1.91213L37.4258 1.48922ZM37.4846 1.456L37.289 0.995723L37.28 0.99978L37.4846 1.456ZM37.621 1.4109L37.5496 0.91602L37.5239 0.919731L37.4987 0.926093L37.621 1.4109ZM37.6539 1.40194L37.8133 1.87586L37.8178 1.87429L37.6539 1.40194ZM37.6539 1.40193L37.4945 0.927983L37.49 0.92957L37.6539 1.40193ZM37.6704 1.39666L37.5609 0.908784L37.5463 0.912068L37.5319 0.916223L37.6704 1.39666ZM37.8679 1.37531L37.885 0.875597L37.8764 0.875305H37.8679V1.37531ZM38.0066 1.38005L37.9896 1.87976L37.9981 1.88005H38.0066V1.38005ZM38.7239 1.71468L38.3405 2.03556L38.342 2.03735L38.7239 1.71468ZM43.9871 36.6228L43.501 36.5054L43.3608 37.0866L43.9576 37.1219L43.9871 36.6228ZM59.6305 43.2773L60.116 43.1571L60.1133 43.1472L59.6305 43.2773ZM59.6352 43.3081L60.1295 43.2328L60.1261 43.2102L60.1206 43.188L59.6352 43.3081ZM59.6493 43.4007L60.1444 43.3306L60.1436 43.3253L59.6493 43.4007ZM59.6591 43.5073L59.161 43.5526L59.1623 43.5635L59.6591 43.5073ZM59.6599 43.5146L59.1631 43.5708L59.1637 43.576L59.6599 43.5146ZM59.6608 43.5223L60.1589 43.4788L60.1588 43.4785L59.6608 43.5223ZM59.6604 43.5472L59.1617 43.511L59.1617 43.511L59.6604 43.5472ZM59.6571 43.5777L59.161 43.5155L59.1609 43.5158L59.6571 43.5777ZM59.6564 43.5834L59.1602 43.5215L59.1586 43.5348L59.1576 43.5481L59.6564 43.5834ZM59.6561 43.5868L59.1574 43.5515L59.1574 43.5516L59.6561 43.5868ZM59.6446 43.6855L59.1555 43.5816L59.1532 43.5927L59.1513 43.604L59.6446 43.6855ZM59.6406 43.7071L60.1308 43.8059L60.1308 43.8057L59.6406 43.7071ZM59.6368 43.7253L59.1489 43.6159L59.1489 43.6159L59.6368 43.7253ZM59.6258 43.7709L60.1055 43.9119L60.1085 43.9016L60.1111 43.8912L59.6258 43.7709ZM59.621 43.7874L59.1412 43.6464L59.1399 43.6512L59.621 43.7874ZM59.6177 43.799L59.1366 43.6628L59.1364 43.6635L59.6177 43.799ZM41.2398 39.5465V40.0465H41.6107L41.7183 39.6915L41.2398 39.5465ZM38.8081 39.5465H38.3081V40.0465H38.8081V39.5465ZM38.8081 5.22958L39.2404 4.97833L38.3081 3.37434V5.22958H38.8081ZM36.9267 39.5465V40.0465H37.4267V39.5465H36.9267ZM36.9267 5.47868H37.4267V3.57821L36.4915 5.23262L36.9267 5.47868ZM34.6338 39.5465L34.1553 39.6915L34.2629 40.0465H34.6338V39.5465ZM56.6038 44.4045L57.0814 44.5526L57.3126 43.8071L56.5387 43.9088L56.6038 44.4045ZM56.599 44.42L57.0765 44.5682L57.0766 44.5681L56.599 44.42ZM56.6031 44.4046L56.1255 44.2563L55.8941 45.002L56.6682 44.9003L56.6031 44.4046ZM57.365 43.0542L57.6966 43.4284L58.0489 43.1162L57.7586 42.7458L57.365 43.0542ZM43.5018 38.4999L43.5278 38.0006L43.1263 37.9797L43.0197 38.3673L43.5018 38.4999ZM42.8269 40.7877L43.3036 40.9386L43.3036 40.9384L42.8269 40.7877ZM33.0439 40.7877L32.5668 40.9371L32.5672 40.9385L33.0439 40.7877ZM32.416 38.6566L32.8976 38.5223L32.7853 38.1192L32.3687 38.1588L32.416 38.6566ZM22.5528 42.0527L22.245 41.6586L22.0839 41.7844L22.0571 41.9872L22.5528 42.0527ZM22.5314 42.2191L23.0275 42.2819V42.2819L22.5314 42.2191ZM22.4963 42.4869L22.0011 42.4179L22.0007 42.4213L22.4963 42.4869ZM22.2917 44.8175L21.7924 44.8422L21.8334 45.6714L22.5472 45.2473L22.2917 44.8175ZM22.9197 44.1221L22.5179 43.8244L22.5166 43.8263L22.9197 44.1221ZM22.923 44.1176L22.5214 43.8198L22.5213 43.8199L22.923 44.1176ZM27.8573 44.1175L27.4556 44.4153L27.4557 44.4154L27.8573 44.1175ZM27.8607 44.1221L28.2631 43.8253L28.2623 43.8243L27.8607 44.1221ZM29.7844 44.1221L30.1861 44.4199L30.1862 44.4198L29.7844 44.1221ZM29.7878 44.1176L29.3861 43.8198L29.3861 43.8199L29.7878 44.1176ZM34.722 44.1175L34.3204 44.4153L34.3204 44.4154L34.722 44.1175ZM34.7254 44.1221L35.1271 43.8243L35.127 43.8243L34.7254 44.1221ZM36.6492 44.1221L37.0509 44.4199L37.0515 44.419L36.6492 44.1221ZM41.5845 44.1175L41.9863 43.8199L41.9861 43.8197L41.5845 44.1175ZM41.5879 44.1221L41.9901 43.8251L41.9897 43.8245L41.5879 44.1221ZM43.514 44.1245L43.1123 43.8268L43.1123 43.8268L43.514 44.1245ZM43.5173 44.12L43.1157 43.8222L43.1157 43.8222L43.5173 44.12ZM48.4516 44.12L48.0499 44.4178L48.05 44.4178L48.4516 44.12ZM48.455 44.1245L48.8574 43.8278L48.8566 43.8267L48.455 44.1245ZM50.3811 44.1221L50.7833 44.4191L50.7834 44.419L50.3811 44.1221ZM55.3187 44.1175L54.9171 44.4153L54.9171 44.4154L55.3187 44.1175ZM55.3221 44.1221L55.7238 43.8243L55.7237 43.8243L55.3221 44.1221ZM56.4274 44.8839L56.6294 45.3413L56.7334 45.2954L56.8073 45.209L56.4274 44.8839ZM60.0022 44.1819C60.0328 44.1253 60.0555 44.0689 60.0724 44.0179L59.1228 43.7043C59.122 43.7069 59.1213 43.7085 59.121 43.7093C59.1207 43.71 59.121 43.709 59.1224 43.7064L60.0022 44.1819ZM59.2449 43.5578L59.2445 43.5582L59.8802 44.3301L59.8806 44.3298L59.2449 43.5578ZM59.7854 44.4322C59.9333 44.3327 59.9958 44.196 60.0108 44.1658L59.1147 43.7218C59.1015 43.7486 59.1358 43.664 59.2272 43.6025L59.7854 44.4322ZM59.8797 44.3568C59.8897 44.3428 59.9092 44.3159 59.9293 44.284L59.0834 43.7507C59.0828 43.7517 59.0815 43.7535 59.079 43.7572C59.0762 43.7613 59.073 43.7657 59.0671 43.7739L59.8797 44.3568ZM59.8677 44.3736C59.8706 44.3695 59.8738 44.365 59.8796 44.3569L59.0672 43.7738C59.0621 43.781 59.0543 43.7918 59.0461 43.8035L59.8677 44.3736ZM59.769 44.4949C59.7999 44.4602 59.8283 44.425 59.8487 44.3992L59.0651 43.7779C59.048 43.7996 59.034 43.8166 59.0226 43.8293L59.769 44.4949ZM59.6709 44.5913C59.7046 44.561 59.7333 44.5318 59.7509 44.5141L59.0406 43.8102C59.0206 43.8304 59.0117 43.8392 59.0031 43.8469L59.6709 44.5913ZM59.5576 44.6862C59.5988 44.656 59.6458 44.6178 59.6921 44.571L58.9818 43.8671C58.9817 43.8673 58.9804 43.8686 58.9776 43.871C58.9747 43.8734 58.9709 43.8764 58.9659 43.8801L59.5576 44.6862ZM59.4958 44.7275C59.5112 44.7177 59.5265 44.7076 59.5408 44.698L58.9827 43.8683C58.9753 43.8732 58.9666 43.879 58.9573 43.8849L59.4958 44.7275ZM59.4501 44.756C59.4656 44.7466 59.4812 44.7369 59.4959 44.7275L58.9572 43.8849C58.9483 43.8906 58.9398 43.896 58.9322 43.9005L59.4501 44.756ZM59.4113 44.7774C59.4154 44.7751 59.4167 44.7745 59.4164 44.7746L58.9659 43.8819C58.9516 43.8891 58.9391 43.8959 58.9294 43.9012L59.4113 44.7774ZM59.4003 44.7835C59.4053 44.7807 59.4086 44.7789 59.4115 44.7773L58.9292 43.9013C58.9226 43.9049 58.9163 43.9085 58.9117 43.911L59.4003 44.7835ZM59.3177 44.8266C59.3548 44.8093 59.3865 44.7913 59.4004 44.7835L58.9116 43.9111C58.9031 43.9159 58.8993 43.918 58.8961 43.9197C58.8935 43.9211 58.8936 43.9209 58.8954 43.9201L59.3177 44.8266ZM59.2634 44.8504C59.2821 44.8429 59.3058 44.8329 59.3318 44.8197L58.8813 43.927C58.8883 43.9234 58.8924 43.9218 58.8912 43.9223L59.2634 44.8504ZM59.2158 44.8685C59.2256 44.8649 59.2442 44.8582 59.2636 44.8504L58.8911 43.9224C58.8889 43.9232 58.8854 43.9246 58.873 43.9291L59.2158 44.8685ZM59.1981 44.8751C59.2017 44.8737 59.2061 44.872 59.2158 44.8685L58.873 43.9291C58.8647 43.9321 58.8508 43.9372 58.8363 43.9428L59.1981 44.8751ZM59.1999 44.8744C59.2034 44.8729 59.2034 44.8729 59.2028 44.8731C59.202 44.8735 59.1987 44.8748 59.194 44.8766L58.8403 43.9413C58.8199 43.949 58.8021 43.9569 58.7978 43.9588L59.1999 44.8744ZM59.161 44.8906C59.1794 44.8835 59.1955 44.8763 59.1997 44.8745L58.7981 43.9587C58.7948 43.9601 58.7946 43.9602 58.7949 43.9601C58.7955 43.9598 58.7981 43.9587 58.802 43.9572L59.161 44.8906ZM59.0701 44.9182C59.1075 44.9098 59.1383 44.8993 59.1607 44.8907L58.8023 43.9571C58.8116 43.9535 58.8287 43.9475 58.8514 43.9424L59.0701 44.9182ZM58.9478 44.9315C58.9484 44.9315 59.0107 44.9334 59.0832 44.9151L58.8383 43.9455C58.9013 43.9296 58.9553 43.9315 58.9478 43.9315V44.9315ZM58.9465 44.9315H58.9478V43.9315H58.9465V44.9315ZM59.0569 44.9175C58.9997 44.9319 58.9533 44.9315 58.948 44.9315L58.9449 43.9315C58.9323 43.9315 58.8784 43.9313 58.8128 43.9478L59.0569 44.9175ZM58.7091 44.9635C58.8379 44.9635 58.9561 44.9438 59.0609 44.9165L58.8088 43.9488C58.7678 43.9595 58.7355 43.9635 58.7091 43.9635V44.9635ZM58.5656 44.4801C58.7676 44.9375 58.7673 44.9376 58.7671 44.9377C58.767 44.9378 58.7668 44.9379 58.7667 44.938C58.7663 44.9381 58.766 44.9382 58.7657 44.9384C58.7651 44.9386 58.7645 44.9389 58.7639 44.9391C58.7627 44.9397 58.7615 44.9402 58.7603 44.9407C58.7579 44.9417 58.7555 44.9427 58.7532 44.9436C58.7486 44.9455 58.7442 44.9472 58.74 44.9487C58.7315 44.9518 58.7239 44.9543 58.7171 44.9564C58.7036 44.9604 58.6936 44.9626 58.6879 44.9636C58.6768 44.9657 58.6821 44.9635 58.7091 44.9635V43.9635C58.6303 43.9635 58.5639 43.9697 58.5074 43.98C58.4791 43.9852 58.4531 43.9915 58.4292 43.9987C58.4173 44.0023 58.4058 44.0061 58.3949 44.0101C58.3895 44.0121 58.3841 44.0142 58.3789 44.0163C58.3763 44.0173 58.3738 44.0184 58.3712 44.0195C58.3699 44.02 58.3687 44.0206 58.3674 44.0211C58.3668 44.0214 58.3662 44.0216 58.3656 44.0219C58.3652 44.0221 58.3649 44.0222 58.3646 44.0223C58.3645 44.0224 58.3642 44.0225 58.3642 44.0225C58.3639 44.0226 58.3637 44.0227 58.5656 44.4801ZM58.8716 45.0924C58.897 45.0105 58.9265 44.9156 58.9544 44.8357C58.9684 44.7953 58.9796 44.766 58.9874 44.7477C58.9914 44.7384 58.9922 44.7374 58.9898 44.7418C58.9886 44.7443 58.985 44.7508 58.9793 44.7599C58.974 44.7681 58.9629 44.785 58.9455 44.8052L58.1858 44.155C58.1184 44.2337 58.0795 44.3275 58.0677 44.3552C58.0471 44.4035 58.0274 44.457 58.0102 44.5063C57.9755 44.6056 57.9409 44.7175 57.9165 44.7959L58.8716 45.0924ZM58.8667 45.1079L58.8715 45.0925L57.9165 44.7958L57.9118 44.8112L58.8667 45.1079ZM56.2727 47.2869C57.205 47.2869 57.8279 46.9052 58.2306 46.412C58.6123 45.9446 58.7769 45.3984 58.8669 45.1072L57.9116 44.8118C57.8181 45.114 57.6994 45.4815 57.4561 45.7795C57.2339 46.0516 56.8902 46.2869 56.2727 46.2869V47.2869ZM53.4051 45.5467C53.8791 46.1859 54.6727 47.2869 56.2727 47.2869V46.2869C55.2214 46.2869 54.6981 45.6116 54.2084 44.9511L53.4051 45.5467ZM53.4016 45.5419L53.405 45.5465L54.2086 44.9513L54.2052 44.9467L53.4016 45.5419ZM52.8415 44.9635C52.884 44.9635 52.8991 44.9685 52.9036 44.9701C52.9079 44.9716 52.9245 44.9778 52.9596 45.0071C53.047 45.0802 53.1686 45.2247 53.4004 45.5403L54.2063 44.9483C53.9866 44.6491 53.7966 44.4033 53.6007 44.2396C53.3657 44.0434 53.1236 43.9635 52.8415 43.9635V44.9635ZM52.2813 45.5396C52.5148 45.2246 52.6364 45.0802 52.7242 45.0069C52.7594 44.9775 52.7759 44.9715 52.7799 44.97C52.7841 44.9685 52.799 44.9635 52.8415 44.9635V43.9635C52.5591 43.9635 52.3177 44.0435 52.0833 44.2392C51.8884 44.402 51.6983 44.6468 51.478 44.9441L52.2813 45.5396ZM52.2779 45.5442L52.2812 45.5397L51.478 44.944L51.4747 44.9486L52.2779 45.5442ZM49.408 47.2845C51.0101 47.2845 51.8038 46.1837 52.2779 45.5442L51.4746 44.9486C50.9852 45.6088 50.4617 46.2845 49.408 46.2845V47.2845ZM46.5404 45.5442C47.0143 46.1835 47.8079 47.2845 49.408 47.2845V46.2845C48.3567 46.2845 47.8333 45.6091 47.3437 44.9487L46.5404 45.5442ZM46.5371 45.5398L46.5405 45.5443L47.3436 44.9485L47.3402 44.944L46.5371 45.5398ZM45.9767 44.9635C46.0192 44.9635 46.0344 44.9685 46.039 44.9701C46.0435 44.9717 46.0601 44.9779 46.0953 45.0072C46.1828 45.0801 46.3044 45.2243 46.5362 45.5386L47.341 44.9451C47.1213 44.6472 46.9312 44.4021 46.7354 44.2389C46.5006 44.0433 46.2587 43.9635 45.9767 43.9635V44.9635ZM45.4171 45.5413C45.6501 45.2257 45.7724 45.0806 45.8605 45.0071C45.8959 44.9775 45.9125 44.9713 45.9166 44.9699C45.9207 44.9684 45.9352 44.9635 45.9767 44.9635V43.9635C45.6949 43.9635 45.4536 44.044 45.2193 44.2397C45.024 44.4029 44.8335 44.6482 44.6126 44.9473L45.4171 45.5413ZM42.5455 47.2869C44.149 47.2869 44.9449 46.1813 45.4172 45.5411L44.6125 44.9474C44.1253 45.6078 43.5994 46.2869 42.5455 46.2869V47.2869ZM39.6756 45.5466C40.1497 46.1862 40.9433 47.2869 42.5455 47.2869V46.2869C41.4917 46.2869 40.9683 45.6113 40.4789 44.9511L39.6756 45.5466ZM39.6722 45.5421L39.6756 45.5467L40.4789 44.9511L40.4755 44.9465L39.6722 45.5421ZM39.112 44.9659C39.1545 44.9659 39.1696 44.9709 39.1743 44.9726C39.1787 44.9741 39.1954 44.9804 39.2305 45.0096C39.3181 45.0826 39.4396 45.2267 39.6714 45.5411L40.4762 44.9475C40.2565 44.6496 40.0665 44.4045 39.8706 44.2414C39.6358 44.0457 39.394 43.9659 39.112 43.9659V44.9659ZM38.5518 45.542C38.7853 45.227 38.9069 45.0826 38.9947 45.0093C39.0299 44.9799 39.0463 44.9739 39.0504 44.9724C39.0546 44.9709 39.0695 44.9659 39.112 44.9659V43.9659C38.8296 43.9659 38.5882 44.046 38.3538 44.2417C38.1588 44.4045 37.9688 44.6493 37.7484 44.9465L38.5518 45.542ZM35.6808 47.2869C37.2868 47.2869 38.0803 46.181 38.5524 45.5411L37.7477 44.9474C37.2603 45.6081 36.7369 46.2869 35.6808 46.2869V47.2869ZM32.8132 45.5467C33.2871 46.1859 34.0807 47.2869 35.6808 47.2869V46.2869C34.6295 46.2869 34.1061 45.6116 33.6165 44.9511L32.8132 45.5467ZM32.8098 45.5421L32.8132 45.5467L33.6164 44.951L33.613 44.9464L32.8098 45.5421ZM32.2495 44.9659C32.292 44.9659 32.3072 44.9709 32.3118 44.9726C32.3163 44.9741 32.333 44.9804 32.3681 45.0096C32.4556 45.0826 32.5772 45.2267 32.809 45.5411L33.6138 44.9475C33.3941 44.6496 33.2041 44.4045 33.0082 44.2414C32.7734 44.0457 32.5315 43.9659 32.2495 43.9659V44.9659ZM31.6899 45.5437C31.9229 45.2282 32.0452 45.0831 32.1333 45.0095C32.1687 44.9799 32.1854 44.9738 32.1894 44.9723C32.1936 44.9708 32.208 44.9659 32.2495 44.9659V43.9659C31.9677 43.9659 31.7264 44.0464 31.4921 44.2421C31.2968 44.4053 31.1063 44.6506 30.8854 44.9497L31.6899 45.5437ZM28.8183 47.2894C30.4219 47.2894 31.2177 46.1838 31.69 45.5436L30.8853 44.9499C30.3981 45.6102 29.8723 46.2894 28.8183 46.2894V47.2894ZM25.9508 45.5491C26.4247 46.1883 27.2183 47.2894 28.8183 47.2894V46.2894C27.7671 46.2894 27.2437 45.614 26.7541 44.9535L25.9508 45.5491ZM25.9474 45.5446L25.9508 45.5492L26.754 44.9534L26.7506 44.9489L25.9474 45.5446ZM25.3871 44.9683C25.4296 44.9683 25.4448 44.9734 25.4494 44.975C25.4538 44.9766 25.4705 44.9828 25.5057 45.0121C25.5932 45.085 25.7148 45.2291 25.9466 45.5435L26.7514 44.9499C26.5317 44.6521 26.3416 44.407 26.1458 44.2438C25.911 44.0482 25.6691 43.9683 25.3871 43.9683V44.9683ZM24.8275 45.5462C25.0605 45.2306 25.1828 45.0855 25.2708 45.012C25.3063 44.9824 25.3229 44.9762 25.327 44.9747C25.3311 44.9733 25.3456 44.9683 25.3871 44.9683V43.9683C25.1052 43.9683 24.8639 44.0488 24.6297 44.2445C24.4343 44.4077 24.2439 44.653 24.023 44.9521L24.8275 45.5462ZM21.9559 47.2918C23.5594 47.2918 24.3552 46.1862 24.8276 45.546L24.0229 44.9523C23.5357 45.6126 23.0098 46.2918 21.9559 46.2918V47.2918ZM20.5027 46.632C20.8702 47.0577 21.3928 47.2918 21.9559 47.2918V46.2918C21.677 46.2918 21.433 46.1794 21.2596 45.9785L20.5027 46.632ZM20.1315 42.1622C19.9974 43.1717 19.8905 44.0423 19.9068 44.7587C19.9232 45.479 20.0646 46.1282 20.5038 46.6333L21.2585 45.9772C21.0416 45.7277 20.9207 45.3564 20.9066 44.7359C20.8923 44.1114 20.9864 43.3207 21.1228 42.2939L20.1315 42.1622ZM20.136 42.1278L20.1314 42.1631L21.1229 42.293L21.1275 42.2578L20.136 42.1278ZM20.329 39.8303C20.3487 40.0519 20.3292 40.4271 20.2862 40.8698C20.2443 41.3013 20.1845 41.7581 20.136 42.1278L21.1275 42.2578C21.1757 41.8907 21.2378 41.4174 21.2815 40.9664C21.3242 40.5264 21.354 40.0666 21.3251 39.7417L20.329 39.8303ZM15.7312 46.4936C16.3642 45.2288 17.2923 43.7249 18.2721 42.5011C18.7621 41.8891 19.2562 41.3583 19.724 40.9641C20.2007 40.5623 20.6076 40.3389 20.9238 40.2766L20.7303 39.2954C20.1681 39.4063 19.6047 39.7568 19.0795 40.1994C18.5454 40.6496 18.006 41.2335 17.4915 41.8761C16.4624 43.1615 15.4974 44.7263 14.8369 46.046L15.7312 46.4936ZM14.4445 47.2919C14.9862 47.2919 15.4873 46.9859 15.7321 46.4917L14.836 46.0478C14.761 46.1993 14.6084 46.2919 14.4445 46.2919V47.2919ZM14.3255 47.2856C14.3806 47.2926 14.4308 47.2919 14.4445 47.2919V46.2919C14.4395 46.2919 14.4368 46.2919 14.4344 46.2919C14.4322 46.2919 14.4316 46.2918 14.4321 46.2919C14.4328 46.2919 14.4399 46.2921 14.4506 46.2935L14.3255 47.2856ZM13.0893 46.3358C13.2836 46.8802 13.7842 47.2559 14.3596 47.2887L14.4166 46.2903C14.2441 46.2805 14.091 46.1673 14.0312 45.9998L13.0893 46.3358ZM12.997 36.9513C11.9329 38.5967 11.9395 40.8398 12.1917 42.6522C12.4475 44.4906 12.9764 46.0209 13.0896 46.3365L14.0309 45.999C13.9278 45.7114 13.4243 44.2547 13.1821 42.5144C12.9363 40.7479 12.9793 38.8201 13.8367 37.4943L12.997 36.9513ZM16.7613 34.8774C15.1357 34.9835 13.8146 35.6893 12.9972 36.9509L13.8364 37.4947C14.4583 36.5348 15.47 35.9638 16.8265 35.8753L16.7613 34.8774ZM18.332 34.4737C18.3526 34.423 18.3335 34.5116 18.0481 34.6288C17.7883 34.7355 17.373 34.8371 16.761 34.8775L16.8268 35.8753C17.5106 35.8302 18.0395 35.7135 18.4281 35.5538C18.7912 35.4046 19.1249 35.1787 19.2584 34.8503L18.332 34.4737ZM18.1106 34.1889C18.2128 34.3058 18.2733 34.4104 18.3012 34.4833C18.315 34.5192 18.3172 34.5381 18.3174 34.5404C18.3176 34.5431 18.3148 34.5161 18.332 34.4737L19.2584 34.8503C19.3651 34.5878 19.3085 34.3175 19.2351 34.1257C19.156 33.9193 19.0248 33.7153 18.8636 33.5308L18.1106 34.1889ZM14.5697 33.3809C16.1783 32.9397 17.5429 33.5371 18.1101 34.1883L18.8641 33.5314C18.0297 32.5736 16.2618 31.8799 14.3052 32.4165L14.5697 33.3809ZM8.74422 40.4845C9.1905 38.8419 10.0804 37.2098 11.1578 35.9093C12.2431 34.5993 13.4724 33.6803 14.5691 33.3811L14.3058 32.4163C12.9307 32.7915 11.539 33.8817 10.3877 35.2713C9.22864 36.6704 8.26657 38.4284 7.7792 40.2223L8.74422 40.4845ZM9.27752 44.8333C8.72401 44.26 8.50063 43.491 8.46578 42.6797C8.43093 41.8681 8.58779 41.0625 8.74435 40.484L7.77907 40.2228C7.60873 40.8522 7.42573 41.7684 7.46671 42.7226C7.50769 43.677 7.77581 44.7176 8.55811 45.5278L9.27752 44.8333ZM9.24962 46.8803C9.81628 46.3229 9.83035 45.4093 9.27855 44.8343L8.55708 45.5268C8.72961 45.7065 8.72487 45.9937 8.54838 46.1673L9.24962 46.8803ZM7.20834 46.8522C7.76603 47.4295 8.6768 47.4401 9.24849 46.8814L8.54951 46.1662C8.37335 46.3384 8.09891 46.3348 7.92756 46.1574L7.20834 46.8522ZM5.96364 39.7217C5.18552 42.587 5.56975 45.1566 7.2084 46.8523L7.9275 46.1573C6.61707 44.8013 6.20641 42.6434 6.92869 39.9838L5.96364 39.7217ZM13.8143 30.5845C11.9466 31.0936 10.2324 32.4808 8.87522 34.1563C7.51341 35.8375 6.46873 37.8602 5.96362 39.7218L6.92872 39.9837C7.3947 38.2663 8.3713 36.3672 9.65228 34.7858C10.9379 33.1987 12.488 31.9825 14.0773 31.5493L13.8143 30.5845ZM20.2774 32.2788C19.0424 30.8609 16.5759 29.8312 13.8142 30.5845L14.0774 31.5493C16.4659 30.8978 18.5381 31.8045 19.5233 32.9356L20.2774 32.2788ZM20.9978 35.5786C21.4513 34.4743 21.1381 33.2643 20.2769 32.2783L19.5238 32.9361C20.2006 33.711 20.3483 34.5278 20.0728 35.1987L20.9978 35.5786ZM16.9488 37.7719C18.2171 37.6885 19.1289 37.3937 19.7798 36.9834C20.4362 36.5697 20.802 36.0543 20.9977 35.5789L20.0729 35.1983C19.9511 35.4943 19.7161 35.8415 19.2466 36.1374C18.7716 36.4368 18.0325 36.6985 16.8832 36.7741L16.9488 37.7719ZM15.4141 38.5348C15.7001 38.0941 16.163 37.8237 16.9489 37.7719L16.8831 36.7741C15.8676 36.841 15.0747 37.2208 14.5752 37.9905L15.4141 38.5348ZM15.2349 43.2896C15.0592 42.4436 14.9301 41.5055 14.9379 40.641C14.9458 39.7645 15.0944 39.0289 15.4144 38.5343L14.5749 37.991C14.1024 38.721 13.9465 39.6834 13.9379 40.632C13.9293 41.5925 14.0717 42.6064 14.2558 43.4929L15.2349 43.2896ZM21.212 37.3665C19.7158 37.3194 18.3265 38.257 17.1868 39.3862C16.03 40.5325 15.0339 41.9722 14.3199 43.1285L15.1708 43.6539C15.868 42.5248 16.8157 41.1617 17.8906 40.0966C18.9827 39.0146 20.1134 38.3324 21.1805 38.366L21.212 37.3665ZM22.6314 38.0562C22.2751 37.6293 21.7669 37.3856 21.2134 37.3666L21.1791 38.366C21.4534 38.3754 21.693 38.4925 21.8636 38.6969L22.6314 38.0562ZM23.1851 39.5522C23.1328 38.9933 22.9834 38.4748 22.6302 38.0547L21.8648 38.6983C22.0384 38.9047 22.1476 39.1979 22.1894 39.6453L23.1851 39.5522ZM31.8791 36.2937C26.8274 36.8084 24.2199 37.9741 22.4096 39.1829L22.9649 40.0145C24.6163 38.9119 27.0609 37.7897 31.9805 37.2886L31.8791 36.2937ZM36.7632 1.38816C36.243 2.00689 25.9882 14.6048 31.4441 36.91L32.4155 36.6724C27.0625 14.7879 37.127 2.50942 37.5286 2.03171L36.7632 1.38816ZM36.8455 1.30913C36.8436 1.3107 36.8179 1.33059 36.7908 1.35797L37.5011 2.0619C37.4907 2.07232 37.4818 2.08021 37.476 2.08518C37.471 2.08945 37.4668 2.09272 37.4695 2.09055L36.8455 1.30913ZM36.7705 1.38795C36.792 1.35905 36.8129 1.33808 36.8274 1.32481C36.8396 1.31364 36.8504 1.3052 36.8455 1.30913L37.4695 2.09055C37.4699 2.09029 37.4858 2.0778 37.5028 2.06224C37.5221 2.04458 37.5475 2.01888 37.5731 1.98446L36.7705 1.38795ZM36.9341 1.2229C36.8934 1.25767 36.8491 1.29822 36.8028 1.34875L37.5407 2.02366C37.551 2.01248 37.5631 2.00082 37.5835 1.98338L36.9341 1.2229ZM37.0385 1.13845C36.9813 1.17692 36.937 1.21758 36.9036 1.2512L37.614 1.95508C37.6183 1.95072 37.6115 1.95816 37.5967 1.96815L37.0385 1.13845ZM37.1604 1.06485C37.1327 1.08045 37.0866 1.10611 37.0385 1.13844L37.5967 1.96816C37.6064 1.96161 37.6181 1.95475 37.6507 1.93639L37.1604 1.06485ZM37.18 1.05377L37.1599 1.06517L37.6513 1.93607L37.6715 1.92467L37.18 1.05377ZM37.28 0.99978C37.2215 1.02599 37.1738 1.05703 37.159 1.06632L37.6925 1.91213C37.6975 1.90896 37.7003 1.90722 37.7028 1.90569C37.705 1.9043 37.7057 1.9039 37.7055 1.90404C37.705 1.90433 37.699 1.90782 37.6892 1.91221L37.28 0.99978ZM37.4987 0.926093C37.4319 0.942924 37.362 0.9648 37.289 0.995813L37.6801 1.91618C37.6965 1.90922 37.7159 1.90261 37.7433 1.89571L37.4987 0.926093ZM37.4945 0.928035C37.4871 0.930499 37.4921 0.928752 37.4989 0.926785C37.5067 0.92453 37.5249 0.919582 37.5496 0.91602L37.6923 1.90579C37.7563 1.89657 37.8111 1.87659 37.8133 1.87584L37.4945 0.928035ZM37.49 0.92957L37.4899 0.929584L37.8178 1.87429L37.8179 1.87428L37.49 0.92957ZM37.5319 0.916223C37.5141 0.921349 37.4982 0.926781 37.4946 0.928005L37.8133 1.87584C37.8165 1.87478 37.8166 1.87473 37.8164 1.87481C37.8158 1.87499 37.813 1.8759 37.8088 1.87711L37.5319 0.916223ZM37.8679 0.875305C37.7647 0.875305 37.662 0.88611 37.5609 0.908784L37.7798 1.88454C37.8057 1.87874 37.8347 1.87531 37.8679 1.87531V0.875305ZM38.0237 0.880344L37.885 0.875597L37.8508 1.87501L37.9896 1.87976L38.0237 0.880344ZM39.1074 1.3938C38.8331 1.06605 38.4314 0.880051 38.0066 0.880051V1.88005C38.1369 1.88005 38.2573 1.93612 38.3405 2.03556L39.1074 1.3938ZM44.4731 36.7401C49.8316 14.5426 39.6269 2.00871 39.1059 1.392L38.342 2.03735C38.7428 2.51181 48.7583 14.7271 43.501 36.5054L44.4731 36.7401ZM60.1133 43.1472C60.0531 42.9236 59.5494 41.362 57.2773 39.7578C55.0118 38.1583 51.0188 36.5379 44.0166 36.1236L43.9576 37.1219C50.8349 37.5287 54.6307 39.1133 56.7006 40.5747C58.7638 42.0314 59.1421 43.3865 59.1477 43.4073L60.1133 43.1472ZM60.1206 43.188C60.1255 43.2081 60.1279 43.2238 60.1289 43.2306C60.1294 43.2343 60.1297 43.2371 60.1299 43.2382C60.13 43.239 60.13 43.2396 60.1299 43.2379C60.1297 43.2369 60.1294 43.2337 60.129 43.2302C60.1285 43.2265 60.1279 43.221 60.127 43.2147C60.1253 43.2027 60.122 43.182 60.1159 43.1571L59.1452 43.3974C59.1402 43.3773 59.1378 43.3617 59.1368 43.3549C59.1363 43.3511 59.136 43.3483 59.1358 43.3472C59.1357 43.3464 59.1357 43.3458 59.1359 43.3475C59.136 43.3485 59.1363 43.3517 59.1367 43.3552C59.1372 43.3589 59.1378 43.3643 59.1388 43.3707C59.1404 43.3827 59.1437 43.4034 59.1499 43.4282L60.1206 43.188ZM60.1436 43.3253L60.1295 43.2328L59.1409 43.3835L59.155 43.476L60.1436 43.3253ZM60.1587 43.5004C60.1587 43.426 60.1482 43.3577 60.1444 43.3306L59.1543 43.4708C59.1555 43.4794 59.1564 43.4856 59.1571 43.4914C59.1579 43.4969 59.1583 43.5007 59.1586 43.5033C59.1592 43.5088 59.1587 43.5069 59.1587 43.5004H60.1587ZM60.157 43.462C60.1577 43.4697 60.1587 43.4832 60.1587 43.5004H59.1587C59.1587 43.5221 59.16 43.5403 59.1611 43.5526L60.157 43.462ZM60.1567 43.4584L60.1559 43.451L59.1623 43.5635L59.1631 43.5708L60.1567 43.4584ZM60.1588 43.4785C60.1577 43.4657 60.1563 43.4543 60.1561 43.4532L59.1637 43.576C59.1639 43.5776 59.1638 43.5767 59.1636 43.5754C59.1634 43.5739 59.1631 43.5705 59.1627 43.566L60.1588 43.4785ZM60.1611 43.5288C60.1611 43.5078 60.1599 43.4904 60.1589 43.4788L59.1627 43.5657C59.162 43.5585 59.1611 43.5455 59.1611 43.5288H60.1611ZM60.1591 43.5835C60.1602 43.5675 60.1611 43.5492 60.1611 43.5288H59.1611C59.1611 43.5211 59.1614 43.515 59.1617 43.511L60.1591 43.5835ZM60.1532 43.64C60.1542 43.6316 60.1572 43.6088 60.1591 43.5834L59.1617 43.511C59.1619 43.5077 59.1622 43.5058 59.1621 43.5066C59.1619 43.5079 59.1617 43.5097 59.161 43.5155L60.1532 43.64ZM60.1525 43.6454L60.1532 43.6397L59.1609 43.5158L59.1602 43.5215L60.1525 43.6454ZM60.1549 43.6221L60.1551 43.6187L59.1576 43.5481L59.1574 43.5515L60.1549 43.6221ZM60.1337 43.7893C60.149 43.7174 60.1531 43.6478 60.1549 43.622L59.1574 43.5516C59.1568 43.56 59.1564 43.566 59.1559 43.5718C59.1555 43.5774 59.1551 43.5812 59.1548 43.584C59.1542 43.5903 59.1541 43.5883 59.1555 43.5816L60.1337 43.7893ZM60.1308 43.8057C60.1332 43.7939 60.1356 43.7809 60.1379 43.7669L59.1513 43.604C59.1512 43.6045 59.151 43.6059 59.1505 43.6085L60.1308 43.8057ZM60.1246 43.8346C60.1267 43.8257 60.1287 43.816 60.1308 43.8059L59.1505 43.6083C59.1501 43.6103 59.1496 43.6127 59.1489 43.6159L60.1246 43.8346ZM60.1111 43.8912C60.1147 43.8768 60.1198 43.8562 60.1247 43.8346L59.1489 43.6159C59.1469 43.6247 59.1445 43.6346 59.1405 43.6506L60.1111 43.8912ZM60.1007 43.9284L60.1055 43.9119L59.1461 43.6299L59.1413 43.6464L60.1007 43.9284ZM60.0988 43.9352L60.1021 43.9236L59.1399 43.6512L59.1366 43.6628L60.0988 43.9352ZM60.0597 44.0519C60.081 44.0004 60.0944 43.9507 60.0989 43.9345L59.1364 43.6635C59.1348 43.6691 59.1338 43.6727 59.1329 43.6759C59.132 43.679 59.1315 43.6806 59.1313 43.6813C59.1308 43.6828 59.1321 43.6782 59.1354 43.6703L60.0597 44.0519ZM41.2398 39.0465H38.8081V40.0465H41.2398V39.0465ZM38.3758 5.48084C41.0722 10.1199 46.0673 21.8903 40.7613 39.4015L41.7183 39.6915C47.1225 21.8566 42.0424 9.79911 39.2404 4.97833L38.3758 5.48084ZM39.3081 39.5465V5.22958H38.3081V39.5465H39.3081ZM37.4267 39.5465V5.47868H36.4267V39.5465H37.4267ZM34.6338 40.0465H36.9267V39.0465H34.6338V40.0465ZM36.4915 5.23262C33.6698 10.2239 28.8557 22.2035 34.1553 39.6915L35.1123 39.4015C29.909 22.2312 34.6429 10.5345 37.362 5.72474L36.4915 5.23262ZM56.1263 44.2564L56.1215 44.2719L57.0766 44.5681L57.0814 44.5526L56.1263 44.2564ZM56.6682 44.9003L56.6689 44.9002L56.5387 43.9088L56.538 43.9089L56.6682 44.9003ZM57.0334 42.68C56.454 43.1934 56.2342 43.9062 56.1255 44.2563L57.0806 44.5529C57.193 44.1909 57.3494 43.7361 57.6966 43.4284L57.0334 42.68ZM43.4758 38.9993C52.9292 39.4909 56.051 42.1881 56.9715 43.3626L57.7586 42.7458C56.5959 41.2622 53.1471 38.5009 43.5278 38.0006L43.4758 38.9993ZM43.3036 40.9384C43.5502 40.1583 43.7754 39.3904 43.9839 38.6325L43.0197 38.3673C42.8143 39.1141 42.5926 39.8699 42.3501 40.637L43.3036 40.9384ZM41.9308 41.9498C42.5618 41.9498 43.1142 41.5368 43.3036 40.9386L42.3502 40.6368C42.2901 40.8265 42.1183 40.9498 41.9308 40.9498V41.9498ZM33.94 41.9498H41.9308V40.9498H33.94V41.9498ZM32.5672 40.9385C32.7565 41.5369 33.309 41.9498 33.94 41.9498V40.9498C33.7525 40.9498 33.5806 40.8265 33.5207 40.6369L32.5672 40.9385ZM31.9344 38.7908C32.1306 39.4948 32.3391 40.2095 32.5668 40.9371L33.5211 40.6384C33.2972 39.923 33.0918 39.2185 32.8976 38.5223L31.9344 38.7908ZM22.8605 42.4467C23.6731 41.8122 24.5853 41.1389 26.0265 40.5485C27.4733 39.9558 29.4754 39.4381 32.4633 39.1543L32.3687 38.1588C29.3102 38.4493 27.2073 38.9841 25.6474 39.6231C24.0819 40.2645 23.0857 41.0021 22.245 41.6586L22.8605 42.4467ZM23.0275 42.2819C23.0345 42.226 23.0413 42.1721 23.0485 42.1181L22.0571 41.9872C22.0495 42.0443 22.0424 42.1009 22.0354 42.1564L23.0275 42.2819ZM22.9916 42.556C23.005 42.4598 23.0165 42.3685 23.0275 42.2819L22.0354 42.1564C22.0243 42.2438 22.0135 42.3289 22.0011 42.4179L22.9916 42.556ZM22.7911 44.7927C22.7657 44.2802 22.8972 43.2689 22.992 42.5526L22.0007 42.4213C21.912 43.0909 21.7613 44.2155 21.7924 44.8422L22.7911 44.7927ZM22.5166 43.8263C22.219 44.2317 22.1039 44.3475 22.0363 44.3876L22.5472 45.2473C22.823 45.0834 23.0559 44.7814 23.3227 44.418L22.5166 43.8263ZM22.5213 43.8199L22.5179 43.8244L23.3214 44.4198L23.3248 44.4152L22.5213 43.8199ZM25.3913 42.0795C23.7892 42.0795 22.9955 43.1803 22.5214 43.8198L23.3247 44.4154C23.8141 43.7552 24.3376 43.0795 25.3913 43.0795V42.0795ZM28.2589 43.8197C27.785 43.1805 26.9914 42.0795 25.3913 42.0795V43.0795C26.4426 43.0795 26.966 43.7548 27.4556 44.4153L28.2589 43.8197ZM28.2623 43.8243L28.2589 43.8197L27.4557 44.4154L27.4591 44.42L28.2623 43.8243ZM28.8226 44.4005C28.7801 44.4005 28.7649 44.3955 28.7603 44.3938C28.7558 44.3923 28.7392 44.3861 28.704 44.3568C28.6165 44.2838 28.4949 44.1397 28.2631 43.8253L27.4583 44.4189C27.678 44.7168 27.868 44.9619 28.0639 45.125C28.2987 45.3207 28.5406 45.4005 28.8226 45.4005V44.4005ZM29.3828 43.8244C29.1492 44.1394 29.0277 44.2838 28.9398 44.3571C28.9047 44.3865 28.8882 44.3925 28.8841 44.394C28.8799 44.3955 28.8651 44.4005 28.8226 44.4005V45.4005C29.1049 45.4005 29.3463 45.3204 29.5807 45.1247C29.7757 44.9619 29.9657 44.7171 30.1861 44.4199L29.3828 43.8244ZM29.3861 43.8199L29.3827 43.8244L30.1862 44.4198L30.1895 44.4152L29.3861 43.8199ZM32.2561 42.0795C30.6539 42.0795 29.8603 43.1803 29.3861 43.8198L30.1894 44.4154C30.6789 43.7552 31.2024 43.0795 32.2561 43.0795V42.0795ZM35.1237 43.8197C34.6498 43.1805 33.8561 42.0795 32.2561 42.0795V43.0795C33.3074 43.0795 33.8307 43.7548 34.3204 44.4153L35.1237 43.8197ZM35.127 43.8243L35.1236 43.8197L34.3204 44.4154L34.3238 44.42L35.127 43.8243ZM35.6873 44.4005C35.6458 44.4005 35.6312 44.3956 35.627 44.3941C35.6228 44.3926 35.606 44.3863 35.5706 44.3568C35.4825 44.2834 35.3602 44.1387 35.1271 43.8243L34.3238 44.4199C34.5446 44.7178 34.7351 44.9623 34.9304 45.125C35.1645 45.3201 35.4056 45.4005 35.6873 45.4005V44.4005ZM36.2475 43.8244C36.014 44.1394 35.8924 44.2838 35.8046 44.3571C35.7694 44.3865 35.753 44.3925 35.7489 44.394C35.7447 44.3955 35.7298 44.4005 35.6873 44.4005V45.4005C35.9697 45.4005 36.2111 45.3204 36.4455 45.1247C36.6405 44.9619 36.8305 44.7171 37.0509 44.4199L36.2475 43.8244ZM39.1185 42.0795C37.5125 42.0795 36.719 43.1854 36.2469 43.8253L37.0515 44.419C37.539 43.7583 38.0624 43.0795 39.1185 43.0795V42.0795ZM41.9861 43.8197C41.5122 43.1805 40.7186 42.0795 39.1185 42.0795V43.0795C40.1698 43.0795 40.6931 43.7548 41.1828 44.4153L41.9861 43.8197ZM41.9897 43.8245L41.9863 43.8199L41.1827 44.4151L41.1861 44.4197L41.9897 43.8245ZM42.5521 44.4029C42.5096 44.4029 42.4945 44.3979 42.4899 44.3963C42.4855 44.3947 42.4687 44.3885 42.4334 44.359C42.3454 44.2856 42.2232 44.1408 41.9901 43.8251L41.1856 44.4191C41.4065 44.7182 41.5971 44.9637 41.793 45.1271C42.028 45.323 42.2699 45.4029 42.5521 45.4029V44.4029ZM43.1123 43.8268C42.8788 44.1418 42.7572 44.2862 42.6694 44.3595C42.6342 44.3889 42.6177 44.395 42.6137 44.3964C42.6095 44.3979 42.5946 44.4029 42.5521 44.4029V45.4029C42.8345 45.4029 43.0759 45.3229 43.3103 45.1272C43.5052 44.9644 43.6953 44.7196 43.9156 44.4223L43.1123 43.8268ZM43.1157 43.8222L43.1123 43.8268L43.9156 44.4223L43.919 44.4178L43.1157 43.8222ZM45.9857 42.0819C44.3835 42.0819 43.5898 43.1827 43.1157 43.8222L43.919 44.4178C44.4085 43.7576 44.9319 43.0819 45.9857 43.0819V42.0819ZM48.8532 43.8222C48.3793 43.1829 47.5857 42.0819 45.9857 42.0819V43.0819C47.0369 43.0819 47.5603 43.7573 48.0499 44.4178L48.8532 43.8222ZM48.8566 43.8267L48.8532 43.8221L48.05 44.4178L48.0534 44.4224L48.8566 43.8267ZM49.4169 44.4029C49.3744 44.4029 49.3592 44.3979 49.3546 44.3963C49.3502 44.3947 49.3335 44.3885 49.2983 44.3592C49.2108 44.2863 49.0892 44.1421 48.8574 43.8278L48.0526 44.4213C48.2723 44.7192 48.4624 44.9643 48.6582 45.1275C48.893 45.3231 49.1349 45.4029 49.4169 45.4029V44.4029ZM49.9789 43.8251C49.7458 44.1407 49.6236 44.2856 49.5356 44.359C49.5002 44.3885 49.4835 44.3947 49.479 44.3963C49.4745 44.3979 49.4594 44.4029 49.4169 44.4029V45.4029C49.6991 45.4029 49.9409 45.323 50.1759 45.1271C50.3719 44.9637 50.5625 44.7182 50.7833 44.4191L49.9789 43.8251ZM52.8504 42.0795C51.2469 42.0795 50.4511 43.1851 49.9788 43.8253L50.7834 44.419C51.2706 43.7586 51.7965 43.0795 52.8504 43.0795V42.0795ZM55.7204 43.8198C55.2462 43.1802 54.4526 42.0795 52.8504 42.0795V43.0795C53.9042 43.0795 54.4276 43.7551 54.9171 44.4153L55.7204 43.8198ZM55.7237 43.8243L55.7203 43.8197L54.9171 44.4154L54.9205 44.42L55.7237 43.8243ZM56.284 44.4005C56.2425 44.4005 56.2279 44.3956 56.2236 44.3941C56.2194 44.3926 56.2027 44.3863 56.1672 44.3568C56.0792 44.2834 55.9569 44.1387 55.7238 43.8243L54.9204 44.4199C55.1413 44.7178 55.3318 44.9623 55.5271 45.125C55.7612 45.3201 56.0022 45.4005 56.284 45.4005V44.4005ZM56.4274 44.8839C56.2255 44.4265 56.2257 44.4264 56.2259 44.4263C56.226 44.4263 56.2262 44.4262 56.2264 44.4261C56.2267 44.426 56.227 44.4258 56.2273 44.4257C56.2279 44.4254 56.2285 44.4252 56.2292 44.4249C56.2304 44.4244 56.2316 44.4239 56.2328 44.4234C56.2352 44.4223 56.2375 44.4214 56.2398 44.4204C56.2444 44.4186 56.2488 44.4169 56.2531 44.4153C56.2615 44.4122 56.2692 44.4097 56.276 44.4077C56.2895 44.4036 56.2995 44.4015 56.3052 44.4004C56.3163 44.3984 56.311 44.4005 56.284 44.4005V45.4005C56.3628 45.4005 56.4292 45.3943 56.4856 45.384C56.5139 45.3788 56.54 45.3725 56.5639 45.3653C56.5758 45.3617 56.5872 45.3579 56.5982 45.3539C56.6036 45.3519 56.609 45.3498 56.6142 45.3477C56.6168 45.3467 56.6193 45.3456 56.6219 45.3445C56.6231 45.344 56.6244 45.3435 56.6257 45.3429C56.6263 45.3427 56.6269 45.3424 56.6275 45.3421C56.6278 45.342 56.6282 45.3418 56.6285 45.3417C56.6286 45.3416 56.6289 45.3415 56.6289 45.3415C56.6292 45.3414 56.6294 45.3413 56.4274 44.8839ZM56.1215 44.2717C56.0961 44.3536 56.0666 44.4485 56.0387 44.5284C56.0246 44.5687 56.0134 44.5981 56.0056 44.6164C56.0017 44.6256 56.0009 44.6266 56.0032 44.6222C56.0045 44.6198 56.008 44.6133 56.0138 44.6042C56.0191 44.5959 56.0302 44.5791 56.0476 44.5588L56.8073 45.209C56.8746 45.1303 56.9135 45.0366 56.9254 45.0089C56.946 44.9605 56.9657 44.9071 56.9829 44.8578C57.0175 44.7585 57.0522 44.6467 57.0765 44.5682L56.1215 44.2717Z" fill="#222532"/>
<path d="M7.28831 31.1358C7.16838 30.991 6.07719 29.7308 4.68027 29.7308C4.03356 29.7308 3.10931 29.999 2.38264 31.2735L1.57127 32.6974H8.59107L7.28831 31.1358Z" fill="white" stroke="#222532"/>
<path fill-rule="evenodd" clip-rule="evenodd" d="M5.46383 34.5745L6.4304 34.6766L6.30815 35.6496C5.95301 38.2791 3.2062 41.0535 3.08862 41.1721L1.81633 42.4442L1.50119 40.6643C1.12727 38.5711 1.39301 36.962 2.28903 35.8822C3.54247 34.3704 5.46383 34.5745 5.46383 34.5745ZM3.73531 37.0997C3.56834 37.299 3.4437 37.553 3.35668 37.852L3.35669 37.852C3.55659 37.5506 3.74943 37.235 3.91405 36.9169C3.8529 36.9715 3.79176 37.0309 3.73531 37.0997Z" fill="white"/>
<path d="M6.4304 34.6766L6.9265 34.7389L6.99008 34.2329L6.4829 34.1793L6.4304 34.6766ZM5.46383 34.5745L5.41101 35.0717L5.41133 35.0718L5.46383 34.5745ZM6.30815 35.6496L6.80368 35.7165L6.80425 35.7119L6.30815 35.6496ZM3.08862 41.1721L3.44215 41.5257L3.44378 41.5241L3.08862 41.1721ZM1.81633 42.4442L1.32398 42.5314L1.49127 43.4763L2.16985 42.7978L1.81633 42.4442ZM1.50119 40.6643L1.99354 40.5771L1.9934 40.5763L1.50119 40.6643ZM2.28903 35.8822L2.6738 36.2015L2.67393 36.2013L2.28903 35.8822ZM3.35668 37.852L2.8766 37.7123L2.8225 37.8982L2.90772 38.0721L3.35668 37.852ZM3.73531 37.0997L4.11865 37.4207L4.12193 37.4167L3.73531 37.0997ZM3.35669 37.852L2.90773 38.0721L3.29149 38.855L3.77338 38.1284L3.35669 37.852ZM3.91405 36.9169L4.35808 37.1468L3.58109 36.5439L3.91405 36.9169ZM6.4829 34.1793L5.51633 34.0773L5.41133 35.0718L6.37791 35.1738L6.4829 34.1793ZM6.80425 35.7119L6.9265 34.7389L5.9343 34.6143L5.81205 35.5873L6.80425 35.7119ZM3.44378 41.5241C3.51085 41.4564 4.24751 40.712 5.01524 39.6444C5.77354 38.5899 6.60917 37.1565 6.80365 35.7165L5.81265 35.5827C5.652 36.7722 4.93665 38.0408 4.20336 39.0605C3.47951 40.0671 2.78397 40.7692 2.73346 40.8202L3.44378 41.5241ZM2.16985 42.7978L3.44215 41.5257L2.73509 40.8185L1.4628 42.0906L2.16985 42.7978ZM1.00885 40.7514L1.32398 42.5314L2.30867 42.357L1.99354 40.5771L1.00885 40.7514ZM1.90425 35.5629C0.87441 36.8039 0.622616 38.5893 1.00899 40.7522L1.9934 40.5763C1.63192 38.5528 1.91161 37.12 2.6738 36.2015L1.90425 35.5629ZM5.46383 34.5745C5.51664 34.0773 5.51643 34.0773 5.51621 34.0773C5.51613 34.0773 5.5159 34.0773 5.51573 34.0772C5.5154 34.0772 5.51503 34.0772 5.51464 34.0771C5.51385 34.077 5.51295 34.0769 5.51192 34.0768C5.50987 34.0766 5.50735 34.0764 5.50436 34.0761C5.49839 34.0756 5.49057 34.0749 5.48097 34.0741C5.46179 34.0726 5.43548 34.0709 5.40269 34.0693C5.33718 34.0662 5.24547 34.0639 5.1328 34.0664C4.90811 34.0714 4.5963 34.0958 4.24065 34.1728C3.53009 34.3266 2.62261 34.6965 1.90412 35.563L2.67393 36.2013C3.20889 35.5561 3.88881 35.2721 4.45229 35.1501C4.73366 35.0892 4.98053 35.0701 5.15526 35.0661C5.2423 35.0642 5.31049 35.066 5.35495 35.0681C5.37715 35.0692 5.39334 35.0703 5.40291 35.0711C5.4077 35.0715 5.41082 35.0717 5.41219 35.0719C5.41288 35.0719 5.41313 35.072 5.41294 35.0719C5.41284 35.0719 5.41264 35.0719 5.41231 35.0719C5.41215 35.0719 5.41196 35.0718 5.41175 35.0718C5.41164 35.0718 5.41145 35.0718 5.4114 35.0718C5.41121 35.0718 5.41101 35.0717 5.46383 34.5745ZM3.83677 37.9917C3.90978 37.7408 4.00696 37.5541 4.11863 37.4207L3.352 36.7786C3.12972 37.044 2.97761 37.3652 2.8766 37.7123L3.83677 37.9917ZM3.80565 37.6319L3.80564 37.6319L2.90772 38.0721L2.90773 38.0721L3.80565 37.6319ZM3.47001 36.6871C3.3161 36.9844 3.13339 37.2841 2.94 37.5757L3.77338 38.1284C3.97978 37.8172 4.18275 37.4855 4.35808 37.1468L3.47001 36.6871ZM4.12193 37.4167C4.15575 37.3755 4.19614 37.3354 4.247 37.29L3.58109 36.5439C3.50966 36.6077 3.42776 36.6862 3.3487 36.7826L4.12193 37.4167Z" fill="#222532"/>
<path fill-rule="evenodd" clip-rule="evenodd" d="M12.7066 29.2913C12.7066 30.2833 11.9046 31.0902 10.9216 31.0902C9.93862 31.0902 9.13905 30.2833 9.13905 29.2913C9.13905 28.2993 9.93862 27.4924 10.9216 27.4924C11.907 27.4924 12.7066 28.2993 12.7066 29.2913ZM11.0204 29.2913C11.0204 29.2367 10.9757 29.1916 10.9216 29.1916C10.8675 29.1916 10.8252 29.2367 10.8252 29.2913C10.8252 29.4005 11.0204 29.4005 11.0204 29.2913Z" fill="white"/>
<path d="M10.9216 31.5902C12.1842 31.5902 13.2066 30.556 13.2066 29.2913H12.2066C12.2066 30.0106 11.6251 30.5902 10.9216 30.5902V31.5902ZM8.63905 29.2913C8.63905 30.5552 9.6582 31.5902 10.9216 31.5902V30.5902C10.2191 30.5902 9.63905 30.0115 9.63905 29.2913H8.63905ZM10.9216 26.9924C9.6582 26.9924 8.63905 28.0275 8.63905 29.2913H9.63905C9.63905 28.5712 10.2191 27.9924 10.9216 27.9924V26.9924ZM13.2066 29.2913C13.2066 28.0271 12.187 26.9924 10.9216 26.9924V27.9924C11.627 27.9924 12.2066 28.5716 12.2066 29.2913H13.2066ZM10.9216 29.6916C10.6953 29.6916 10.5204 29.5086 10.5204 29.2913H11.5204C11.5204 28.9649 11.2562 28.6916 10.9216 28.6916V29.6916ZM11.3252 29.2913C11.3252 29.4927 11.1635 29.6916 10.9216 29.6916V28.6916C10.5716 28.6916 10.3252 28.9808 10.3252 29.2913H11.3252ZM10.5204 29.2913C10.5204 29.1492 10.5923 29.0255 10.691 28.9519C10.7754 28.8889 10.8619 28.8732 10.9228 28.8732C10.9837 28.8732 11.0702 28.8889 11.1546 28.9519C11.2533 29.0255 11.3252 29.1492 11.3252 29.2913H10.3252C10.3252 29.488 10.4215 29.6526 10.5568 29.7535C10.6778 29.8438 10.8131 29.8732 10.9228 29.8732C11.0325 29.8732 11.1678 29.8438 11.2888 29.7535C11.4241 29.6526 11.5204 29.488 11.5204 29.2913H10.5204Z" fill="#222532"/>
</svg>
